<svg version="1.2" baseProfile="tiny-ps" xmlns="http://www.w3.org/2000/svg" viewBox="0 0 300 51" width="300" height="51">
	<title>bitcoinera-svg</title>
	<style>
		tspan { white-space:pre }
		.shp0 { fill: #ffffff } 
	</style>
	<g id="Rounded_Rectangle_1_1_">
		<g id="Layer">
			<g id="Layer">
				<path id="XMLID_4651_" class="shp0" d="M23.2 24.8L21.7 30.9C23.6 31.3 29.3 33.2 30.3 29.8L30.3 29.8C31.2 26.3 25.1 25.4 23.2 24.8Z" />
				<path id="XMLID_4671_" fill-rule="evenodd" class="shp0" d="M50.4 31.5C47 45 33.4 53.2 19.9 49.8C6.4 46.4 -1.9 32.9 1.6 19.3C5.1 5.7 18.6 -2.5 32.1 1C45.6 4.4 53.7 17.9 50.4 31.5ZM31 14.6L32.3 9.6L29.4 8.8L28.3 13.2C27.5 13 26.8 12.8 26 12.6L27.1 8.3L24.2 7.5L23.1 12.1C22.5 12.1 22 11.9 21.4 11.7L17.6 10.7L16.8 13.7L18.9 14.3C20 14.5 20.2 15.2 20.2 15.8L18.9 20.9C19.1 21.1 19.1 21.1 19.3 21.1C19.1 21.1 19.1 21.1 18.9 21.1L17 28.3C16.8 28.7 16.5 29.3 15.7 29.1L13.6 28.5L12.3 31.7L15.9 32.7C16.5 32.9 17 33.1 17.8 33.3L16.7 37.9L19.6 38.7L20.7 34.1C21.5 34.3 22.2 34.5 23 34.7L21.9 39.3L24.8 39.7L25.9 35.1C30.6 36.1 34.1 35.7 35.6 31.5C36.9 28 35.6 26.1 33.1 24.8C34.8 24.4 36.1 23.3 36.5 20.8C36.9 17.5 34.4 15.6 31 14.6Z" />
				<path id="XMLID_4674_" class="shp0" d="M24.9 16.8L23.6 22.3C25.1 22.7 29.9 24.2 30.8 21.2C31.5 17.9 26.6 17.2 24.9 16.8Z" />
			</g>
			<path id="Layer" class="shp0" d="M55.9 19.8C55.9 19.8 56.9 26.7 55.9 29.9C57.6 30.5 79.3 35.6 79.3 35.6C79.3 35.6 81.4 31.8 81.6 25.9C76.1 24.8 55.9 19.8 55.9 19.8Z" />
			<path id="Layer" class="shp0" d="M52.5 10.7L52.5 10.7C53.8 10.5 55.2 10.3 56.7 10.3C63.9 10.3 70 15.4 71.6 22.3L81.9 24.6C81.5 11.1 70.4 0.4 56.7 0.4C52.9 0.4 49.3 1.2 46 2.7C46.4 3.1 50.8 6.9 52.5 10.7Z" />
			<path id="Layer" class="shp0" d="M56.5 40.6C55.2 40.6 53.8 40.4 52.7 40C52.7 40.2 52.5 40.2 52.5 40.2C52.5 40.2 49.1 45.7 46 48C49.2 49.5 52.7 50.3 56.5 50.3C61.8 50.3 66.6 48.6 70.6 45.9L63.2 38.8C61.3 40 59 40.6 56.5 40.6Z" />
			<path id="Layer" fill-rule="evenodd" class="shp0" d="M89.5 12.4L100 12.4C102.3 12.4 105.7 13.2 107.1 14.5C108.4 15.6 109.2 17.4 109.2 19.3C109.2 21.6 107.3 24.1 105 25C108.6 26.1 109.8 27.5 109.8 31.1C109.8 32.8 109 34.1 108.1 35.3C107.1 36.4 105.4 37.6 103.9 38C102.9 38.2 102.4 38.6 101 38.6L89.5 38.5L89.5 12.4ZM95.8 23.1L99 23.1C100.5 23.1 101.7 22.7 102.4 22.1C103.2 21.5 103.7 20.8 103.7 19.8C103.7 18.8 103.3 18.1 102.6 17.5C101.8 16.9 100.7 16.7 99.2 16.7L95.8 16.8L95.8 23.1ZM95.8 34L99.8 34C101.1 34 102.1 33.6 102.8 33C103.5 32.4 103.9 31.7 103.9 30.7C103.9 28.6 102.4 27.5 99.3 27.5L95.8 27.5L95.8 34Z" />
			<path id="Layer" class="shp0" d="M112.3 38.5L112.3 12.4L118.4 12.4L118.4 38.5L112.3 38.5Z" />
			<path id="Layer" class="shp0" d="M189.7 38.5L189.7 12.4L195.8 12.4L195.8 38.5C195.6 38.5 189.7 38.5 189.7 38.5Z" />
			<path id="Layer" class="shp0" d="M119.6 17L119.6 12.4L140.4 12.4L140.4 17L133.2 17L133.2 38.5L127 38.5L127 17L119.6 17Z" />
			<path id="Layer" class="shp0" d="M161.3 15.3L159.2 18.2C158.6 19 157.7 19.2 156.9 18.6C155.9 17.8 154.6 17.1 153.1 16.9C150.6 16.7 148.5 17.7 147 19.2C145.5 20.7 144.7 22.6 144.7 25.1C144.7 27.6 144.9 29.7 146.6 31.2C148.1 32.7 149.5 33.9 151.9 33.7C156.1 33.5 156.1 32.6 157.2 31.8C157.8 31.4 158.3 31.8 158.7 32.2L161 34.5C160.6 35.3 159.5 37.5 153.2 38.7C149.2 39.5 145 37.7 142.5 35.3C140 32.8 138.7 29.8 138.7 25.8C138.7 21.8 140 18.6 142.5 15.9C145.2 13.2 148.4 12.1 152.4 12.1C153.9 12.1 155.6 12.5 156.8 12.9C159.2 13.7 159.8 14.5 161.3 15.3Z" />
			<path id="Layer" fill-rule="evenodd" class="shp0" d="M160.6 25.4C160.6 21.6 161.9 18.3 164.4 15.9C166.9 13.4 170.1 12.3 174.1 12.3C178.1 12.3 181.3 13.4 183.8 15.9C186.3 18.4 187.6 21.6 187.6 25.4C187.6 29.2 186.5 32.5 183.8 34.9C181.3 37.4 178.1 38.5 174.1 38.5C170.1 38.5 166.9 37.4 164.4 34.9C161.9 32.4 160.6 29.2 160.6 25.4ZM174.3 16.8C172 16.8 170.3 17.6 169 19.1C167.7 20.6 166.9 22.7 166.9 25.2C166.9 27.7 167.7 29.8 169 31.3C170.3 32.8 172.2 33.6 174.3 33.6C176.4 33.6 178.3 32.8 179.6 31.3C180.9 29.8 181.7 27.7 181.7 25.2C181.7 22.7 180.9 20.6 179.6 18.9C178.3 17.7 176.6 16.8 174.3 16.8Z" />
			<path id="Layer" class="shp0" d="M198.9 38.5L198.9 12.4L203.5 12.4C203.5 12.4 216.5 28.4 216.6 29.2L217.2 12.4L221.8 12.4L221.8 38.5L217.6 38.5C217.6 38.5 204.1 22.5 204.1 21.7L204.1 38.5C204 38.5 198.9 38.5 198.9 38.5Z" />
			<path id="Layer" class="shp0" d="M234.5 38.5L234.5 12.4L251.3 12.4L251.3 17L240.6 17L240.6 22.9L248.8 22.9L248.8 27.3L240.6 27.3L240.6 34L251.7 34L251.7 38.6L234.5 38.5L234.5 38.5Z" />
			<path id="Layer" fill-rule="evenodd" class="shp0" d="M253.2 12.4L263.9 12.4C266.2 12.4 268.9 13.5 270.4 14.9C271.9 16.2 272.3 18.5 272.3 20.6C272.3 23.6 270 26.3 267.2 27.3C267.8 27.5 267.8 27.9 268 28.1C268.2 28.3 268.6 28.7 269 29.1C269.2 29.5 269.4 29.7 269.6 29.9C269.6 30.1 269.8 30.3 270.2 30.7L273.2 35.8L274.9 38.1L268.2 38.1C267.4 37.3 266.7 36.4 266.1 35.2L265.5 34.1C264.5 32.2 263.8 30.9 263.2 30.1C262.4 29 262.4 28.4 261.1 28.4L259.6 28.4L259.6 38.1L253.2 38.5L253.2 12.4ZM259.3 24.6L262.2 24.6C263.5 24.6 264.5 24.2 265.2 23.6C266 23 266.3 22.1 266.3 20.7C266.3 19.3 265.9 18.4 265.2 17.8C264.4 17 263.3 16.8 262 16.8L259.3 16.8L259.3 24.6Z" />
			<path id="Layer" fill-rule="evenodd" class="shp0" d="M273.2 38.5L283.3 12.4L289.4 12.4L299.7 38.5L294.7 38.5C294.1 38.5 293.7 38.1 293.6 37.5L291.7 32.4L281.4 32.4L280.1 37.2C279.7 38 279 38.5 278.2 38.5L273.2 38.5ZM282.7 28.6L289.9 28.6C289.9 28.6 286.29 18.82 286.11 17.76C286.17 19.06 282.7 28.6 282.7 28.6ZM286.11 17.76C286.11 17.74 286.1 17.72 286.1 17.7C286.1 17.72 286.1 17.74 286.11 17.76Z" />
		</g>
	</g>
	<g id="Vector_Smart_Object_xA0_Image_1_">
	</g>
</svg>